<?xml version="1.0" encoding="UTF-8"?>
<svg width="54px" height="51px" viewBox="0 0 54 51" version="1.1" xmlns="http://www.w3.org/2000/svg" xmlns:xlink="http://www.w3.org/1999/xlink">
    <!-- Generator: Sketch 60.1 (88133) - https://sketch.com -->
    <title>santander logo</title>
    <desc>Created with Sketch.</desc>
    <g id="WIREFRAMES" stroke="none" stroke-width="1" fill="none" fill-rule="evenodd">
        <g id="07-Create-Aplicacion-1/3" transform="translate(-84.000000, -764.000000)" fill="#EA1D25" fill-rule="nonzero">
            <g id="santander-logo" transform="translate(84.000000, 764.000000)">
                <path d="M38.8343103,23.4722892 C38.7110268,21.6289157 38.2178927,19.7855422 37.2316245,18.1879518 L28.8483448,3.56385542 C28.2319272,2.45783133 27.7387931,1.22891566 27.492226,0 L27.1223755,0.614457831 C25.0265555,4.17831325 25.0265555,8.7253012 27.1223755,12.2891566 L33.9029693,23.9638554 C35.9987892,27.5277108 35.9987892,32.0746988 33.9029693,35.6385542 L33.5331187,36.253012 C33.2865517,35.0240964 32.7934176,33.7951807 32.177,32.6891566 L26.0128237,21.9975904 L22.0677509,15.1156627 C21.4513333,14.0096386 20.9581992,12.7807229 20.7116322,11.5518072 L20.3417816,12.1662651 C18.2459617,15.7301205 18.2459617,20.1542169 20.3417816,23.8409639 L20.3417816,23.8409639 L27.1223755,35.5156627 C29.2181954,39.0795181 29.2181954,43.626506 27.1223755,47.1903614 L26.7525249,47.8048193 C26.5059578,46.5759036 26.0128237,45.346988 25.3964061,44.2409639 L16.8898429,29.6168675 C15.7802912,27.6506024 15.2871571,25.4385542 15.2871571,23.226506 C6.28745976,25.5614458 0,30.6 0,36.3759036 C0,44.486747 12.0817854,51 26.9990919,51 C41.9163984,51 53.9981839,44.486747 53.9981839,36.3759036 C54.1214674,30.8457831 47.9572911,25.8072289 38.8343103,23.4722892 Z" id="Shape"></path>
            </g>
        </g>
    </g>
</svg>