<?xml version="1.0" encoding="UTF-8"?>
<svg width="54px" height="51px" viewBox="0 0 54 51" version="1.1" xmlns="http://www.w3.org/2000/svg" xmlns:xlink="http://www.w3.org/1999/xlink">
    <!-- Generator: Sketch 60.1 (88133) - https://sketch.com -->
    <title>santander logo copy 2</title>
    <desc>Created with Sketch.</desc>
    <g id="WIREFRAMES" stroke="none" stroke-width="1" fill="none" fill-rule="evenodd">
        <g id="07-Create-Aplicacion-1/3" transform="translate(-184.000000, -764.000000)" fill="#393939" fill-rule="nonzero">
            <g id="santander-logo-copy-2" transform="translate(184.000000, 764.000000)">
                <path d="M38.8343103,23.4462378 C38.7110268,21.6049102 38.2178927,19.7635826 37.2316245,18.1677654 L28.8483448,3.55989998 C28.2319272,2.45510343 27.7387931,1.22755172 27.492226,0 L27.1223755,0.613775858 C25.0265555,4.17367584 25.0265555,8.71561719 27.1223755,12.2755172 L33.9029693,23.9372585 C35.9987892,27.4971584 35.9987892,32.0390998 33.9029693,35.5989998 L33.5331187,36.2127756 C33.2865517,34.9852239 32.7934176,33.7576722 32.177,32.6528757 L26.0128237,21.9731757 L22.0677509,15.0988861 C21.4513333,13.9940896 20.9581992,12.7665378 20.7116322,11.5389861 L20.3417816,12.152762 C18.2459617,15.712662 18.2459617,20.1318481 20.3417816,23.8145033 L20.3417816,23.8145033 L27.1223755,35.4762446 C29.2181954,39.0361446 29.2181954,43.5780859 27.1223755,47.1379859 L26.7525249,47.7517618 C26.5059578,46.52421 26.0128237,45.2966583 25.3964061,44.1918618 L16.8898429,29.5839964 C15.7802912,27.6199136 15.2871571,25.4103205 15.2871571,23.2007274 C6.28745976,25.5330757 0,30.5660377 0,36.3355308 C0,44.4373721 12.0817854,50.9433962 26.9990919,50.9433962 C41.9163984,50.9433962 53.9981839,44.4373721 53.9981839,36.3355308 C54.1214674,30.8115481 47.9572911,25.778586 38.8343103,23.4462378 Z" id="Shape"></path>
            </g>
        </g>
    </g>
</svg>