<?xml version="1.0" encoding="UTF-8"?>
<svg width="68px" height="42px" viewBox="0 0 68 42" version="1.1" xmlns="http://www.w3.org/2000/svg" xmlns:xlink="http://www.w3.org/1999/xlink">
    <!-- Generator: Sketch 60.1 (88133) - https://sketch.com -->
    <title>santander logo copy</title>
    <desc>Created with Sketch.</desc>
    <g id="WIREFRAMES" stroke="none" stroke-width="1" fill="none" fill-rule="evenodd">
        <g id="07-Create-Aplicacion-1/3" transform="translate(-275.000000, -765.000000)" fill="#EA1D25" fill-rule="nonzero">
            <g id="santander-logo-copy" transform="translate(275.000000, 765.000000)">
                <path d="M38.5568433,11.909527 C38.4974846,11.0059125 38.2600496,10.102298 37.7851797,9.31916551 L33.7487858,2.15049081 C33.4519922,1.60832214 33.2145572,1.0059125 33.0958398,0.403502863 L32.9177635,0.704707682 C31.9086651,2.45169563 31.9086651,4.6806113 32.9177635,6.42759925 L36.1824939,12.1504908 C37.1915924,13.8974788 37.1915924,16.1263944 36.1824939,17.8733824 L36.0044177,18.1745872 C35.8857003,17.5721776 35.6482653,16.9697679 35.3514716,16.4275992 L32.3835349,11.1866354 L30.4840554,7.81314142 C30.1872618,7.27097274 29.9498268,6.6685631 29.8311094,6.06615347 L29.6530332,6.36735828 C28.6439347,8.11434624 28.6439347,10.2830209 29.6530332,12.0902499 L29.6530332,12.0902499 L32.9177635,17.8131414 C33.926862,19.5601294 33.926862,21.789045 32.9177635,23.536033 L32.7396873,23.8372378 C32.6209699,23.2348282 32.3835349,22.6324185 32.0867413,22.0902499 L27.9909886,14.9215752 C27.45676,13.9577197 27.2193251,12.8733824 27.2193251,11.789045 C22.8861375,12.9336233 19.858842,15.4035029 19.858842,18.2348282 C19.858842,22.2107318 25.675998,25.4035029 32.8584048,25.4035029 C40.0408116,25.4035029 45.8579676,22.2107318 45.8579676,18.2348282 C45.9173263,15.5239848 42.9493896,13.0541053 38.5568433,11.909527 Z M0,41.40613 C0.0365591398,40.7751431 0.109677419,40.3668575 0.292473118,39.8472213 C1.13333333,40.2555069 2.23010753,40.4410913 3.0344086,40.4410913 C4.42365591,40.4410913 5.22795699,39.9956888 5.22795699,39.0677669 C5.22795699,38.1769619 4.64301075,37.7686763 3.25376344,37.1376895 L2.48602151,36.8407545 C1.06021505,36.2097676 0.109677419,35.3931964 0.109677419,33.7971708 C0.109677419,32.0526777 1.31612903,30.9391714 3.72903226,30.9391714 C4.71612903,30.9391714 5.63010753,31.0876389 6.47096774,31.3845739 C6.4344086,31.9784439 6.32473118,32.4609633 6.17849462,32.9063658 C5.37419355,32.6094308 4.38709677,32.4609633 3.69247312,32.4609633 C2.37634409,32.4609633 1.79139785,32.9805995 1.79139785,33.7971708 C1.79139785,34.5766251 2.37634409,35.0591445 3.43655914,35.504547 L4.24086022,35.8385989 C6.14193548,36.6551701 6.94623656,37.5459751 6.94623656,39.0306501 C6.94623656,40.7751431 5.63010753,42 3.07096774,42 C1.86451613,42 0.840860215,41.8144156 0,41.40613 Z M15.0258065,34.0941058 L15.0258065,41.7401819 L13.4903226,41.7401819 L13.4172043,40.81226 C12.9784946,41.4803638 12.3569892,41.9257663 11.2967742,41.9257663 C9.32258065,41.9257663 7.96989247,40.4410913 7.96989247,37.8800269 C7.96989247,35.207612 9.39569892,33.6487033 12.1741935,33.6487033 C13.2709677,33.6858201 14.1849462,33.7971708 15.0258065,34.0941058 Z M13.3806452,39.9956888 L13.3806452,35.207612 C13.0516129,35.1333782 12.6494624,35.1333782 12.1741935,35.1333782 C10.455914,35.1333782 9.6516129,36.2097676 9.6516129,37.9171438 C9.6516129,39.4760525 10.2731183,40.5895588 11.7354839,40.5895588 C12.4301075,40.5524419 12.9419355,40.3297407 13.3806452,39.9956888 Z M23.5075269,36.6180532 L23.5075269,41.7401819 L21.8623656,41.7401819 L21.8623656,36.9149882 C21.8623656,35.6901314 21.4602151,35.1333782 19.8150538,35.1333782 C19.4129032,35.1333782 18.9741935,35.1704951 18.4989247,35.2447289 L18.4989247,41.7401819 L16.8537634,41.7401819 L16.8537634,34.0941058 C17.9139785,33.8342876 19.083871,33.6487033 19.8516129,33.6487033 C22.6301075,33.6858201 23.5075269,34.7622095 23.5075269,36.6180532 Z M28.1139785,40.515325 C28.5892473,40.515325 29.0645161,40.4410913 29.3935484,40.2926238 C29.3569892,40.7380263 29.283871,41.2576625 29.2107527,41.703065 C28.772043,41.8886494 28.2602151,41.9628831 27.8215054,41.9628831 C26.2129032,41.9628831 25.1892473,41.2205456 25.1892473,39.3647019 L25.1892473,31.3103402 C25.7010753,31.1247558 26.3225806,31.0505221 26.8344086,31.0505221 L26.8344086,33.9456383 L29.4666667,33.9456383 C29.4301075,34.4652745 29.3935484,34.9477939 29.3204301,35.3931964 L26.8344086,35.3931964 L26.8344086,39.1420007 C26.8344086,40.1070394 27.3096774,40.515325 28.1139785,40.515325 Z M36.9978495,34.0941058 L36.9978495,41.7401819 L35.4623656,41.7401819 L35.3892473,40.81226 C34.9505376,41.4803638 34.3290323,41.9257663 33.2688172,41.9257663 C31.2946237,41.9257663 29.9419355,40.4410913 29.9419355,37.8800269 C29.9419355,35.207612 31.3677419,33.6487033 34.1462366,33.6487033 C35.2430108,33.6858201 36.1204301,33.7971708 36.9978495,34.0941058 Z M35.316129,39.9956888 L35.316129,35.207612 C34.9870968,35.1333782 34.5849462,35.1333782 34.1096774,35.1333782 C32.3913978,35.1333782 31.5870968,36.2097676 31.5870968,37.9171438 C31.5870968,39.4760525 32.2086022,40.5895588 33.6709677,40.5895588 C34.3655914,40.5524419 34.9139785,40.3297407 35.316129,39.9956888 Z M45.4795699,36.6180532 L45.4795699,41.7401819 L43.7978495,41.7401819 L43.7978495,36.9149882 C43.7978495,35.6901314 43.3956989,35.1333782 41.7505376,35.1333782 C41.3483871,35.1333782 40.9096774,35.1704951 40.4344086,35.2447289 L40.4344086,41.7401819 L38.7892473,41.7401819 L38.7892473,34.0941058 C39.8494624,33.8342876 41.0193548,33.6487033 41.7870968,33.6487033 C44.5655914,33.6858201 45.4795699,34.7622095 45.4795699,36.6180532 Z M53.8516129,31.0505221 L53.8516129,41.7401819 L52.316129,41.7401819 L52.2430108,40.7751431 C51.8043011,41.4803638 51.1827957,41.9257663 50.0860215,41.9257663 C48.111828,41.9257663 46.7591398,40.4410913 46.7591398,37.8800269 C46.7591398,35.207612 48.1849462,33.6487033 50.9634409,33.6487033 C51.4021505,33.6487033 51.8043011,33.6858201 52.2064516,33.7600539 L52.2064516,31.2361064 C52.7182796,31.0876389 53.3032258,31.0505221 53.8516129,31.0505221 Z M52.2064516,39.9956888 L52.2064516,35.2818457 C51.7677419,35.207612 51.3290323,35.1333782 50.8903226,35.1333782 C49.2451613,35.1333782 48.4774194,36.1726507 48.4774194,37.9171438 C48.4774194,39.4760525 49.0989247,40.5895588 50.5612903,40.5895588 C51.2193548,40.5524419 51.7677419,40.3297407 52.2064516,39.9956888 Z M62.1870968,38.4738969 L56.8860215,38.4738969 C57.1053763,39.8472213 57.8731183,40.4782082 59.372043,40.4782082 C60.2860215,40.4782082 61.2,40.2926238 62.0043011,39.8843382 C61.9311828,40.3297407 61.8580645,40.9236106 61.7483871,41.40613 C60.9806452,41.7401819 60.2129032,41.8886494 59.2989247,41.8886494 C56.5204301,41.8886494 55.2043011,40.3297407 55.2043011,37.7315594 C55.2043011,35.4674301 56.227957,33.6487033 58.8602151,33.6487033 C61.2365591,33.6487033 62.2602151,35.207612 62.2602151,37.1376895 C62.2602151,37.6573257 62.2602151,38.0284944 62.1870968,38.4738969 Z M56.8860215,37.0634557 L60.6150538,37.0634557 C60.6150538,35.801482 59.9569892,35.0591445 58.8236559,35.0591445 C57.6172043,35.0962614 56.9956989,35.7643651 56.8860215,37.0634557 Z M68,33.7600539 C68,34.2796901 67.9268817,34.8735601 67.8537634,35.207612 C67.4516129,35.1704951 67.0860215,35.1333782 66.6107527,35.1333782 C66.2086022,35.1333782 65.8064516,35.1704951 65.4043011,35.207612 L65.4043011,41.7401819 L63.7591398,41.7401819 L63.7591398,34.0941058 C64.4537634,33.8342876 65.6602151,33.6487033 66.5741935,33.6487033 C67.0494624,33.6858201 67.6344086,33.6858201 68,33.7600539 Z" id="Shape"></path>
            </g>
        </g>
    </g>
</svg>