<svg xmlns="http://www.w3.org/2000/svg" xmlns:xlink="http://www.w3.org/1999/xlink" width="31" height="35" viewBox="0 0 31 35">
    <defs>
        <linearGradient id="a" x1="50%" x2="50%" y1="0%" y2="100%">
            <stop offset="0%" stop-color="#FD7541"/>
            <stop offset="100%" stop-color="#EB5F29"/>
        </linearGradient>
        <path id="c" d="M17.4 0h7.335C26.977 0 29 2.034 29 4.29v7.377L17.4 0z"/>
        <filter id="b" width="169%" height="168.6%" x="-34.5%" y="-51.4%" filterUnits="objectBoundingBox">
            <feOffset dy="-2" in="SourceAlpha" result="shadowOffsetOuter1"/>
            <feGaussianBlur in="shadowOffsetOuter1" result="shadowBlurOuter1" stdDeviation="1"/>
            <feComposite in="shadowBlurOuter1" in2="SourceAlpha" operator="out" result="shadowBlurOuter1"/>
            <feColorMatrix in="shadowBlurOuter1" values="0 0 0 0 0 0 0 0 0 0 0 0 0 0 0 0 0 0 0.0909637238 0"/>
        </filter>
    </defs>
    <g fill="none" fill-rule="evenodd">
        <path fill="url(#a)" d="M17.4 0L29 11.667v19.25C29 33.172 27.182 35 24.94 35H4.06C1.818 35 0 33.172 0 30.917V4.083C0 1.828 1.818 0 4.06 0H17.4z"/>
        <g transform="rotate(180 23.2 5.833)">
            <use fill="#000" filter="url(#b)" xlink:href="#c"/>
            <use fill="#FFF" fill-opacity=".4" xlink:href="#c"/>
        </g>
        <g fill="#FFF" fill-rule="nonzero">
            <path d="M11.566 14.87a5.562 5.562 0 1 0 0 11.125 5.564 5.564 0 0 0 5.564-5.564h-5.564v-5.56z" opacity=".4"/>
            <path d="M12.432 14.003v5.563h5.563a5.561 5.561 0 0 0-5.563-5.563z"/>
        </g>
    </g>
</svg>
